<mxfile host="Electron" agent="Mozilla/5.0 (Windows NT 10.0; Win64; x64) AppleWebKit/537.36 (KHTML, like Gecko) draw.io/27.0.9 Chrome/134.0.6998.205 Electron/35.4.0 Safari/537.36" version="27.0.9">
  <diagram name="Page-1" id="dJAkGbmgdXkkUtj8ouT1">
    <mxGraphModel dx="1426" dy="875" grid="0" gridSize="10" guides="1" tooltips="1" connect="1" arrows="1" fold="1" page="0" pageScale="1" pageWidth="850" pageHeight="1100" math="0" shadow="0">
      <root>
        <mxCell id="0" />
        <mxCell id="1" parent="0" />
        <mxCell id="_YO9Yk2_a55CeiOsXKHj-1" value="&lt;p style=&quot;margin:0px;margin-top:4px;text-align:center;&quot;&gt;&lt;b&gt;abstract Coffee&lt;/b&gt;&lt;/p&gt;&lt;hr size=&quot;1&quot; style=&quot;border-style:solid;&quot;&gt;&lt;p style=&quot;margin:0px;margin-left:4px;&quot;&gt;+ field: Type&lt;/p&gt;&lt;hr size=&quot;1&quot; style=&quot;border-style:solid;&quot;&gt;&lt;p style=&quot;margin:0px;margin-left:4px;&quot;&gt;+ cost(): Type&lt;/p&gt;" style="verticalAlign=top;align=left;overflow=fill;html=1;whiteSpace=wrap;" vertex="1" parent="1">
          <mxGeometry x="280" y="160" width="160" height="90" as="geometry" />
        </mxCell>
        <mxCell id="_YO9Yk2_a55CeiOsXKHj-2" value="&lt;p style=&quot;margin:0px;margin-top:4px;text-align:center;&quot;&gt;&lt;b&gt;HouseBlend&lt;/b&gt;&lt;/p&gt;&lt;hr size=&quot;1&quot; style=&quot;border-style:solid;&quot;&gt;&lt;p style=&quot;margin:0px;margin-left:4px;&quot;&gt;+ field: Type&lt;/p&gt;&lt;hr size=&quot;1&quot; style=&quot;border-style:solid;&quot;&gt;&lt;p style=&quot;margin:0px;margin-left:4px;&quot;&gt;+ method(): Type&lt;/p&gt;" style="verticalAlign=top;align=left;overflow=fill;html=1;whiteSpace=wrap;" vertex="1" parent="1">
          <mxGeometry x="120" y="320" width="110" height="90" as="geometry" />
        </mxCell>
        <mxCell id="_YO9Yk2_a55CeiOsXKHj-3" value="Extends" style="endArrow=block;endSize=16;endFill=0;html=1;rounded=0;exitX=0.5;exitY=0;exitDx=0;exitDy=0;entryX=0.325;entryY=1;entryDx=0;entryDy=0;entryPerimeter=0;" edge="1" parent="1" source="_YO9Yk2_a55CeiOsXKHj-2" target="_YO9Yk2_a55CeiOsXKHj-1">
          <mxGeometry width="160" relative="1" as="geometry">
            <mxPoint x="380" y="360" as="sourcePoint" />
            <mxPoint x="540" y="360" as="targetPoint" />
          </mxGeometry>
        </mxCell>
        <mxCell id="_YO9Yk2_a55CeiOsXKHj-4" value="&lt;p style=&quot;margin:0px;margin-top:4px;text-align:center;&quot;&gt;&lt;b&gt;DarkRoast&lt;/b&gt;&lt;/p&gt;&lt;hr size=&quot;1&quot; style=&quot;border-style:solid;&quot;&gt;&lt;p style=&quot;margin:0px;margin-left:4px;&quot;&gt;+ field: Type&lt;/p&gt;&lt;hr size=&quot;1&quot; style=&quot;border-style:solid;&quot;&gt;&lt;p style=&quot;margin:0px;margin-left:4px;&quot;&gt;+ method(): Type&lt;/p&gt;" style="verticalAlign=top;align=left;overflow=fill;html=1;whiteSpace=wrap;" vertex="1" parent="1">
          <mxGeometry x="220" y="440" width="110" height="90" as="geometry" />
        </mxCell>
        <mxCell id="_YO9Yk2_a55CeiOsXKHj-5" value="&lt;p style=&quot;margin:0px;margin-top:4px;text-align:center;&quot;&gt;&lt;b&gt;Decaf&lt;/b&gt;&lt;/p&gt;&lt;hr size=&quot;1&quot; style=&quot;border-style:solid;&quot;&gt;&lt;p style=&quot;margin:0px;margin-left:4px;&quot;&gt;+ field: Type&lt;/p&gt;&lt;hr size=&quot;1&quot; style=&quot;border-style:solid;&quot;&gt;&lt;p style=&quot;margin:0px;margin-left:4px;&quot;&gt;+ method(): Type&lt;/p&gt;" style="verticalAlign=top;align=left;overflow=fill;html=1;whiteSpace=wrap;" vertex="1" parent="1">
          <mxGeometry x="360" y="440" width="110" height="90" as="geometry" />
        </mxCell>
        <mxCell id="_YO9Yk2_a55CeiOsXKHj-6" value="&lt;p style=&quot;margin:0px;margin-top:4px;text-align:center;&quot;&gt;&lt;b&gt;Espresso&lt;/b&gt;&lt;/p&gt;&lt;hr size=&quot;1&quot; style=&quot;border-style:solid;&quot;&gt;&lt;p style=&quot;margin:0px;margin-left:4px;&quot;&gt;+ field: Type&lt;/p&gt;&lt;hr size=&quot;1&quot; style=&quot;border-style:solid;&quot;&gt;&lt;p style=&quot;margin:0px;margin-left:4px;&quot;&gt;+ method(): Type&lt;/p&gt;" style="verticalAlign=top;align=left;overflow=fill;html=1;whiteSpace=wrap;" vertex="1" parent="1">
          <mxGeometry x="450" y="320" width="100" height="90" as="geometry" />
        </mxCell>
        <mxCell id="_YO9Yk2_a55CeiOsXKHj-7" value="Extends" style="endArrow=block;endSize=16;endFill=0;html=1;rounded=0;entryX=0.75;entryY=1;entryDx=0;entryDy=0;exitX=0.5;exitY=0;exitDx=0;exitDy=0;" edge="1" parent="1" source="_YO9Yk2_a55CeiOsXKHj-6" target="_YO9Yk2_a55CeiOsXKHj-1">
          <mxGeometry width="160" relative="1" as="geometry">
            <mxPoint x="670" y="420" as="sourcePoint" />
            <mxPoint x="830" y="420" as="targetPoint" />
          </mxGeometry>
        </mxCell>
        <mxCell id="_YO9Yk2_a55CeiOsXKHj-8" value="Extends" style="endArrow=block;endSize=16;endFill=0;html=1;rounded=0;entryX=0.5;entryY=1;entryDx=0;entryDy=0;exitX=0.5;exitY=0;exitDx=0;exitDy=0;" edge="1" parent="1" source="_YO9Yk2_a55CeiOsXKHj-4" target="_YO9Yk2_a55CeiOsXKHj-1">
          <mxGeometry width="160" relative="1" as="geometry">
            <mxPoint x="150" y="640" as="sourcePoint" />
            <mxPoint x="310" y="640" as="targetPoint" />
          </mxGeometry>
        </mxCell>
        <mxCell id="_YO9Yk2_a55CeiOsXKHj-9" value="Extends" style="endArrow=block;endSize=16;endFill=0;html=1;rounded=0;entryX=0.6;entryY=1.022;entryDx=0;entryDy=0;entryPerimeter=0;exitX=0.5;exitY=0;exitDx=0;exitDy=0;" edge="1" parent="1" source="_YO9Yk2_a55CeiOsXKHj-5" target="_YO9Yk2_a55CeiOsXKHj-1">
          <mxGeometry width="160" relative="1" as="geometry">
            <mxPoint x="520" y="670" as="sourcePoint" />
            <mxPoint x="680" y="670" as="targetPoint" />
          </mxGeometry>
        </mxCell>
        <mxCell id="_YO9Yk2_a55CeiOsXKHj-10" value="&lt;p style=&quot;margin:0px;margin-top:4px;text-align:center;&quot;&gt;&lt;b&gt;abstract Condiments&lt;/b&gt;&lt;/p&gt;&lt;hr size=&quot;1&quot; style=&quot;border-style:solid;&quot;&gt;&lt;p style=&quot;margin:0px;margin-left:4px;&quot;&gt;+ field: Type&lt;/p&gt;&lt;hr size=&quot;1&quot; style=&quot;border-style:solid;&quot;&gt;&lt;p style=&quot;margin:0px;margin-left:4px;&quot;&gt;+ method(): Type&lt;/p&gt;" style="verticalAlign=top;align=left;overflow=fill;html=1;whiteSpace=wrap;" vertex="1" parent="1">
          <mxGeometry x="800" y="160" width="160" height="90" as="geometry" />
        </mxCell>
        <mxCell id="_YO9Yk2_a55CeiOsXKHj-11" value="Extends" style="endArrow=block;endSize=16;endFill=0;html=1;rounded=0;entryX=1;entryY=0.422;entryDx=0;entryDy=0;entryPerimeter=0;exitX=0.006;exitY=0.422;exitDx=0;exitDy=0;exitPerimeter=0;" edge="1" parent="1" source="_YO9Yk2_a55CeiOsXKHj-10" target="_YO9Yk2_a55CeiOsXKHj-1">
          <mxGeometry width="160" relative="1" as="geometry">
            <mxPoint x="680" y="300" as="sourcePoint" />
            <mxPoint x="840" y="300" as="targetPoint" />
          </mxGeometry>
        </mxCell>
        <mxCell id="_YO9Yk2_a55CeiOsXKHj-12" value="&lt;p style=&quot;margin:0px;margin-top:4px;text-align:center;&quot;&gt;&lt;b&gt;Milk&lt;/b&gt;&lt;/p&gt;&lt;hr size=&quot;1&quot; style=&quot;border-style:solid;&quot;&gt;&lt;p style=&quot;margin:0px;margin-left:4px;&quot;&gt;+ field: Type&lt;/p&gt;&lt;hr size=&quot;1&quot; style=&quot;border-style:solid;&quot;&gt;&lt;p style=&quot;margin:0px;margin-left:4px;&quot;&gt;+ method(): Type&lt;/p&gt;" style="verticalAlign=top;align=left;overflow=fill;html=1;whiteSpace=wrap;" vertex="1" parent="1">
          <mxGeometry x="700" y="320" width="100" height="90" as="geometry" />
        </mxCell>
        <mxCell id="_YO9Yk2_a55CeiOsXKHj-13" value="&lt;p style=&quot;margin:0px;margin-top:4px;text-align:center;&quot;&gt;&lt;b&gt;Mocha&lt;/b&gt;&lt;/p&gt;&lt;hr size=&quot;1&quot; style=&quot;border-style:solid;&quot;&gt;&lt;p style=&quot;margin:0px;margin-left:4px;&quot;&gt;+ field: Type&lt;/p&gt;&lt;hr size=&quot;1&quot; style=&quot;border-style:solid;&quot;&gt;&lt;p style=&quot;margin:0px;margin-left:4px;&quot;&gt;+ method(): Type&lt;/p&gt;" style="verticalAlign=top;align=left;overflow=fill;html=1;whiteSpace=wrap;" vertex="1" parent="1">
          <mxGeometry x="920" y="440" width="100" height="90" as="geometry" />
        </mxCell>
        <mxCell id="_YO9Yk2_a55CeiOsXKHj-14" value="&lt;p style=&quot;margin:0px;margin-top:4px;text-align:center;&quot;&gt;&lt;b&gt;Soy&lt;/b&gt;&lt;/p&gt;&lt;hr size=&quot;1&quot; style=&quot;border-style:solid;&quot;&gt;&lt;p style=&quot;margin:0px;margin-left:4px;&quot;&gt;+ field: Type&lt;/p&gt;&lt;hr size=&quot;1&quot; style=&quot;border-style:solid;&quot;&gt;&lt;p style=&quot;margin:0px;margin-left:4px;&quot;&gt;+ method(): Type&lt;/p&gt;" style="verticalAlign=top;align=left;overflow=fill;html=1;whiteSpace=wrap;" vertex="1" parent="1">
          <mxGeometry x="780" y="440" width="110" height="90" as="geometry" />
        </mxCell>
        <mxCell id="_YO9Yk2_a55CeiOsXKHj-16" value="&lt;p style=&quot;margin:0px;margin-top:4px;text-align:center;&quot;&gt;&lt;b&gt;Chocolate&lt;/b&gt;&lt;/p&gt;&lt;hr size=&quot;1&quot; style=&quot;border-style:solid;&quot;&gt;&lt;p style=&quot;margin:0px;margin-left:4px;&quot;&gt;+ field: Type&lt;/p&gt;&lt;hr size=&quot;1&quot; style=&quot;border-style:solid;&quot;&gt;&lt;p style=&quot;margin:0px;margin-left:4px;&quot;&gt;+ method(): Type&lt;/p&gt;" style="verticalAlign=top;align=left;overflow=fill;html=1;whiteSpace=wrap;" vertex="1" parent="1">
          <mxGeometry x="990" y="320" width="100" height="90" as="geometry" />
        </mxCell>
        <mxCell id="_YO9Yk2_a55CeiOsXKHj-17" value="Extends" style="endArrow=block;endSize=16;endFill=0;html=1;rounded=0;entryX=0.206;entryY=1.033;entryDx=0;entryDy=0;entryPerimeter=0;exitX=0.5;exitY=0;exitDx=0;exitDy=0;" edge="1" parent="1" source="_YO9Yk2_a55CeiOsXKHj-12" target="_YO9Yk2_a55CeiOsXKHj-10">
          <mxGeometry width="160" relative="1" as="geometry">
            <mxPoint x="690" y="600" as="sourcePoint" />
            <mxPoint x="850" y="600" as="targetPoint" />
          </mxGeometry>
        </mxCell>
        <mxCell id="_YO9Yk2_a55CeiOsXKHj-18" value="Extends" style="endArrow=block;endSize=16;endFill=0;html=1;rounded=0;exitX=0.5;exitY=0;exitDx=0;exitDy=0;entryX=0.406;entryY=1;entryDx=0;entryDy=0;entryPerimeter=0;" edge="1" parent="1" source="_YO9Yk2_a55CeiOsXKHj-14" target="_YO9Yk2_a55CeiOsXKHj-10">
          <mxGeometry width="160" relative="1" as="geometry">
            <mxPoint x="840" y="380" as="sourcePoint" />
            <mxPoint x="1000" y="380" as="targetPoint" />
          </mxGeometry>
        </mxCell>
        <mxCell id="_YO9Yk2_a55CeiOsXKHj-19" value="Extends" style="endArrow=block;endSize=16;endFill=0;html=1;rounded=0;exitX=0.5;exitY=0;exitDx=0;exitDy=0;entryX=0.625;entryY=1.011;entryDx=0;entryDy=0;entryPerimeter=0;" edge="1" parent="1" source="_YO9Yk2_a55CeiOsXKHj-13" target="_YO9Yk2_a55CeiOsXKHj-10">
          <mxGeometry width="160" relative="1" as="geometry">
            <mxPoint x="1010" y="580" as="sourcePoint" />
            <mxPoint x="1170" y="580" as="targetPoint" />
          </mxGeometry>
        </mxCell>
        <mxCell id="_YO9Yk2_a55CeiOsXKHj-20" value="Extends" style="endArrow=block;endSize=16;endFill=0;html=1;rounded=0;entryX=0.838;entryY=1.011;entryDx=0;entryDy=0;entryPerimeter=0;exitX=0.5;exitY=0;exitDx=0;exitDy=0;" edge="1" parent="1" source="_YO9Yk2_a55CeiOsXKHj-16" target="_YO9Yk2_a55CeiOsXKHj-10">
          <mxGeometry width="160" relative="1" as="geometry">
            <mxPoint x="1090" y="490" as="sourcePoint" />
            <mxPoint x="1250" y="490" as="targetPoint" />
          </mxGeometry>
        </mxCell>
        <mxCell id="_YO9Yk2_a55CeiOsXKHj-22" value="Use" style="endArrow=open;endSize=12;dashed=1;html=1;rounded=0;entryX=0.5;entryY=0;entryDx=0;entryDy=0;exitX=0.556;exitY=-0.011;exitDx=0;exitDy=0;exitPerimeter=0;" edge="1" parent="1" source="_YO9Yk2_a55CeiOsXKHj-10" target="_YO9Yk2_a55CeiOsXKHj-1">
          <mxGeometry width="160" relative="1" as="geometry">
            <mxPoint x="610" y="120" as="sourcePoint" />
            <mxPoint x="770" y="120" as="targetPoint" />
            <Array as="points">
              <mxPoint x="890" y="80" />
              <mxPoint x="360" y="80" />
            </Array>
          </mxGeometry>
        </mxCell>
      </root>
    </mxGraphModel>
  </diagram>
</mxfile>
